<svg width="1280" height="640" viewBox="0 0 1280 640" fill="none" xmlns="http://www.w3.org/2000/svg">
  <defs>
    <linearGradient id="bg" x1="0" y1="0" x2="1280" y2="640" gradientUnits="userSpaceOnUse">
      <stop offset="0" stop-color="#F8FAFC"/>
      <stop offset="0.5" stop-color="#EEF8F7"/>
      <stop offset="1" stop-color="#F1F5F9"/>
    </linearGradient>
    <linearGradient id="panel" x1="216" y1="112" x2="1092" y2="568" gradientUnits="userSpaceOnUse">
      <stop offset="0" stop-color="#FFFFFF"/>
      <stop offset="1" stop-color="#F8FAFC"/>
    </linearGradient>
    <linearGradient id="mark" x1="194" y1="132" x2="376" y2="358" gradientUnits="userSpaceOnUse">
      <stop offset="0" stop-color="#12B8A6"/>
      <stop offset="0.48" stop-color="#3B82F6"/>
      <stop offset="1" stop-color="#7C3AED"/>
    </linearGradient>
    <linearGradient id="glass" x1="314" y1="270" x2="414" y2="382" gradientUnits="userSpaceOnUse">
      <stop offset="0" stop-color="#F8FAFC" stop-opacity="0.96"/>
      <stop offset="1" stop-color="#DFF7F3" stop-opacity="0.76"/>
    </linearGradient>
    <filter id="softShadow" x="120" y="64" width="1040" height="560" filterUnits="userSpaceOnUse" color-interpolation-filters="sRGB">
      <feDropShadow dx="0" dy="24" stdDeviation="28" flood-color="#0F172A" flood-opacity="0.14"/>
    </filter>
  </defs>

  <rect width="1280" height="640" fill="url(#bg)"/>
  <path d="M0 556C156 504 300 516 446 552C610 592 738 610 902 546C1036 494 1150 488 1280 520V640H0V556Z" fill="#D9F3EF"/>

  <g filter="url(#softShadow)">
    <rect x="132" y="86" width="1016" height="468" rx="36" fill="url(#panel)" stroke="#DCE7EF" stroke-width="2"/>
  </g>

  <g>
    <rect x="196" y="144" width="216" height="178" rx="30" fill="url(#mark)"/>
    <rect x="216" y="170" width="176" height="18" rx="9" fill="#FFFFFF" fill-opacity="0.32"/>
    <circle cx="232" cy="179" r="5" fill="#FFFFFF" fill-opacity="0.78"/>
    <circle cx="248" cy="179" r="5" fill="#FFFFFF" fill-opacity="0.58"/>
    <circle cx="264" cy="179" r="5" fill="#FFFFFF" fill-opacity="0.42"/>
    <rect x="232" y="218" width="92" height="16" rx="8" fill="#FFFFFF" fill-opacity="0.88"/>
    <rect x="232" y="252" width="124" height="16" rx="8" fill="#FFFFFF" fill-opacity="0.72"/>
    <rect x="232" y="286" width="68" height="16" rx="8" fill="#FFFFFF" fill-opacity="0.56"/>
    <circle cx="346" cy="276" r="44" fill="url(#glass)" stroke="#FFFFFF" stroke-width="12"/>
    <path d="M376 306L410 340" stroke="#0F766E" stroke-width="18" stroke-linecap="round"/>
    <path d="M334 266H358M346 254V278" stroke="#0F766E" stroke-width="10" stroke-linecap="round"/>
  </g>

  <text x="464" y="210" fill="#0F172A" font-family="Inter, ui-sans-serif, system-ui, -apple-system, BlinkMacSystemFont, Segoe UI, sans-serif" font-size="84" font-weight="800">buildby</text>
  <text x="468" y="275" fill="#334155" font-family="Inter, ui-sans-serif, system-ui, -apple-system, BlinkMacSystemFont, Segoe UI, sans-serif" font-size="34" font-weight="600">Find out what desktop apps are built with</text>
  <text x="468" y="330" fill="#475569" font-family="Inter, ui-sans-serif, system-ui, -apple-system, BlinkMacSystemFont, Segoe UI, sans-serif" font-size="26" font-weight="500">Detect Electron, Flutter, Tauri, Qt, CEF, JVM, and .NET.</text>
  <text x="468" y="368" fill="#475569" font-family="Inter, ui-sans-serif, system-ui, -apple-system, BlinkMacSystemFont, Segoe UI, sans-serif" font-size="26" font-weight="500">Inspect native code, signatures, notarization, and app metadata.</text>

  <g font-family="Inter, ui-sans-serif, system-ui, -apple-system, BlinkMacSystemFont, Segoe UI, sans-serif" font-size="21" font-weight="700">
    <rect x="468" y="420" width="118" height="42" rx="21" fill="#E0F2FE"/>
    <text x="493" y="448" fill="#0369A1">macOS</text>

    <rect x="602" y="420" width="132" height="42" rx="21" fill="#EDE9FE"/>
    <text x="625" y="448" fill="#6D28D9">Windows</text>

    <rect x="750" y="420" width="126" height="42" rx="21" fill="#DCFCE7"/>
    <text x="773" y="448" fill="#15803D">Node CLI</text>

    <rect x="892" y="420" width="176" height="42" rx="21" fill="#FFEFD5"/>
    <text x="914" y="448" fill="#B45309">Open Source</text>
  </g>

  <text x="196" y="506" fill="#64748B" font-family="Inter, ui-sans-serif, system-ui, -apple-system, BlinkMacSystemFont, Segoe UI, sans-serif" font-size="24" font-weight="600">github.com/wavever/buildby</text>
  <text x="772" y="506" fill="#64748B" font-family="Inter, ui-sans-serif, system-ui, -apple-system, BlinkMacSystemFont, Segoe UI, sans-serif" font-size="24" font-weight="600">npm i -g @wavever/buildby</text>
</svg>
